<?xml version="1.0" encoding="UTF-8"?>
<svg id="Layer_1" xmlns="http://www.w3.org/2000/svg" version="1.1" viewBox="0 0 1250.2 202.5">
  <!-- Generator: Adobe Illustrator 29.3.0, SVG Export Plug-In . SVG Version: 2.1.0 Build 146)  -->
  <defs>
    <style>
      .st0 {
        fill: #ff0056;
      }

      .st1 {
        fill: #151331;
      }
    </style>
  </defs>
  <g>
    <path class="st0" d="M223.2,198.5l52.3-52.3c15.6-15.6,24.4-36.6,24.4-58.7s-8.6-43-24.4-58.7c-15.6-15.8-36.6-24.4-58.7-24.4s-43,8.6-58.7,24.4l-52.4,52.3,37.1,37.1,52.3-52.3c5.8-5.8,13.5-9,21.7-9s15.9,3.2,21.7,9c5.8,5.8,9,13.5,9,21.7s-3.2,15.9-9,21.7l-52.5,52.2,37.1,36.9Z"/>
    <path class="st0" d="M71.3,109.2c-5.8-5.8-9-13.5-9-21.7s3.2-15.9,9-21.7c5.8-5.8,13.5-9,21.7-9s10.1,1.3,14.4,3.7l37.6-37.6c-14.7-11.9-32.8-18.4-52-18.4s-43,8.6-58.7,24.4c-15.8,15.6-24.4,36.4-24.4,58.7s8.6,43,24.4,58.7l52.3,52.3,37.1-37.1-52.5-52.2Z"/>
  </g>
  <rect class="st1" x="351.3" y="19.7" width="27.7" height="172.1"/>
  <g>
    <path class="st1" d="M461.1,59.2c-32.6,0-55.7,22.5-55.7,54.6v78h27.5v-78.7c0-16.8,11.3-28.2,28.2-28.2s28,11.3,28,28.2v78.7h27.5v-78c-.2-32.1-22.8-54.6-55.5-54.6"/>
    <path class="st1" d="M755.3,168.4c-21.1,0-38.3-18.4-38.3-41.1s17.2-41.9,38.3-41.9,38.7,18.9,38.7,41.9-17.3,41.1-38.7,41.1M755.3,59.2c-37.1,0-66.3,29.9-66.3,68.2s29,67.5,66.3,67.5,66.3-29.7,66.3-67.5-29.2-68.2-66.3-68.2"/>
    <path class="st1" d="M923.9,139.9c0,16.8-11.2,28.2-28,28.2s-28.2-11.3-28.2-28.2V62.3h-27.5v77.8c0,31.6,23.4,54.6,55.7,54.6s55.7-23,55.7-54.6V62.3h-27.7v77.6Z"/>
    <path class="st1" d="M1030.6,59.2c-32.6,0-55.7,22.5-55.7,54.6v78h27.5v-78.7c0-16.8,11.3-28.2,28.2-28.2s28,11.3,28,28.2v78.7h27.5v-78c-.2-32.1-22.8-54.6-55.5-54.6"/>
    <path class="st1" d="M1173.3,169.1c-21.5,0-38.3-18.7-38.3-42.4s17.2-41.9,38.3-41.9,38.7,18.9,38.7,41.9c-.2,23-17.9,42.4-38.7,42.4M1211.8,7.8v66.1c-10.7-9.3-24.6-14.8-38.8-14.8-36.9,0-65.8,29.7-65.8,67.5s29,68,66,68,66.3-25.3,66.3-68V7.8h-27.7Z"/>
    <path class="st1" d="M606.9,169.1c-21,0-38.7-19.4-38.7-42.4s17.3-41.9,38.7-41.9,38.3,18.9,38.3,41.9-16.8,42.4-38.3,42.4M607.1,59.2c-14.3,0-28.2,5.3-38.8,14.8V7.8h-27.7v118.9c0,42.8,29,68,66.3,68s66-29.9,66-68-28.9-67.5-65.8-67.5"/>
  </g>
</svg>